<?xml version="1.0" standalone="no"?>
<!DOCTYPE svg PUBLIC "-//W3C//DTD SVG 20010904//EN"
 "http://www.w3.org/TR/2001/REC-SVG-20010904/DTD/svg10.dtd">
<svg version="1.0" xmlns="http://www.w3.org/2000/svg"
 width="862.000000pt" height="818.000000pt" viewBox="0 0 862.000000 818.000000"
 preserveAspectRatio="xMidYMid meet">

<g transform="translate(0.000000,818.000000) scale(0.100000,-0.100000)"
fill="#000000" stroke="none">
<path d="M3825 8084 c-82 -20 -102 -35 -205 -154 -95 -110 -120 -133 -120
-112 0 4 -20 30 -45 58 -40 46 -50 52 -105 63 -83 17 -212 2 -355 -40 -113
-34 -245 -81 -251 -90 -3 -5 -12 -9 -19 -9 -8 0 -39 -11 -69 -25 -30 -14 -58
-25 -62 -25 -4 0 -39 -15 -78 -34 -39 -18 -123 -57 -186 -86 -127 -58 -368
-179 -416 -209 -30 -18 -31 -22 -24 -61 8 -44 11 -41 -58 -65 -8 -3 -57 36
-112 88 -114 108 -214 178 -302 211 -123 46 -188 43 -188 -10 0 -43 41 -214
72 -303 46 -132 122 -272 178 -329 90 -91 190 -83 363 31 45 29 102 61 127 70
l44 17 30 -29 29 -29 161 84 c372 196 696 347 834 388 l54 15 24 -26 c13 -14
24 -33 24 -42 0 -9 -48 -71 -106 -136 -212 -240 -540 -633 -551 -662 -3 -7 5
-26 16 -42 27 -38 27 -46 -10 -92 -21 -27 -43 -42 -72 -50 -106 -27 -259 -142
-358 -266 -122 -154 -126 -197 -24 -248 55 -28 68 -30 155 -28 175 3 432 90
464 157 19 41 32 103 41 194 5 54 13 80 29 97 20 23 24 24 63 13 41 -12 44
-11 74 17 43 41 224 254 292 345 31 41 63 82 70 90 8 8 35 44 61 80 25 36 52
71 58 79 7 8 23 28 35 44 11 15 23 25 26 20 3 -4 17 -53 31 -108 15 -55 59
-206 98 -335 70 -232 70 -236 65 -325 -7 -133 7 -216 53 -311 40 -83 85 -134
244 -283 l69 -65 -19 -35 c-14 -27 -26 -36 -46 -36 -15 -1 -36 -10 -48 -20
-27 -24 -222 -314 -284 -423 -42 -73 -51 -82 -76 -82 -28 0 -28 -1 -19 -29 9
-26 1 -48 -83 -218 -82 -165 -93 -194 -92 -238 2 -75 154 -527 314 -933 39
-101 74 -182 76 -179 2 2 -12 42 -31 90 -19 48 -35 91 -35 95 0 5 104 12 231
15 l232 6 32 -25 c22 -17 34 -36 38 -60 10 -59 46 -122 84 -145 30 -19 44 -21
99 -16 73 7 160 44 213 92 30 27 151 91 151 80 0 -1 -14 -35 -30 -74 -70 -164
-121 -443 -118 -647 l1 -129 8 155 c9 186 45 389 95 537 52 155 54 159 115
173 49 12 237 9 299 -4 14 -3 7 1 -15 8 -22 8 -59 15 -82 15 -24 1 -43 5 -43
9 0 5 80 53 178 107 97 54 220 125 272 158 104 65 310 215 310 226 0 42 -134
386 -220 566 -48 101 -190 443 -190 457 0 2 20 4 43 5 82 4 214 71 288 148 19
19 37 35 40 35 3 0 12 -19 18 -42 7 -24 78 -204 157 -401 80 -197 164 -418
188 -491 51 -152 98 -351 99 -417 1 -51 -31 -115 -80 -161 -28 -27 -319 -213
-602 -385 -86 -53 -232 -143 -324 -201 -92 -57 -169 -103 -171 -101 -2 2 -49
86 -106 186 -57 101 -105 181 -108 178 -5 -5 52 -110 155 -287 l74 -127 -43
-38 c-99 -88 -148 -137 -148 -148 0 -7 43 -45 95 -85 53 -40 99 -80 104 -89 5
-10 -2 -67 -20 -151 -16 -74 -30 -171 -32 -215 -3 -44 -3 -62 0 -40 6 68 12
72 35 24 12 -24 49 -71 83 -105 109 -110 290 -177 566 -210 158 -19 599 -27
599 -11 0 6 -10 26 -22 44 -42 61 -127 86 -358 103 -115 9 -234 29 -300 51
-19 6 -53 13 -75 14 -22 2 -78 9 -123 18 -92 16 -136 11 -203 -24 l-40 -20
-49 50 c-26 28 -60 76 -75 106 l-26 56 30 149 c17 82 28 155 25 163 -3 8 -41
42 -85 76 -74 58 -79 64 -79 100 0 34 7 44 76 106 63 56 74 72 70 91 -7 28
-34 10 404 279 648 399 717 449 756 551 15 41 15 50 -1 136 -42 227 -117 457
-255 788 -38 91 -99 241 -135 335 -37 93 -72 173 -78 177 -7 4 -21 8 -32 8
-15 0 -29 17 -52 61 l-31 61 65 64 c35 34 80 68 98 74 40 13 79 56 94 103 9
26 36 52 116 112 163 121 324 296 404 437 39 68 46 70 214 70 130 -1 160 8
193 52 18 24 22 24 82 17 43 -5 74 -3 100 5 39 14 82 55 82 79 0 8 26 34 58
58 110 86 144 141 157 252 4 38 20 88 43 135 34 70 37 81 37 165 0 83 -3 96
-38 169 -31 67 -37 89 -37 147 0 80 -19 142 -66 221 -78 128 -157 181 -309
205 -73 12 -113 26 -212 76 -114 57 -128 61 -205 65 -72 3 -92 1 -153 -23 -38
-15 -100 -35 -137 -45 -36 -10 -86 -29 -110 -44 -23 -14 -58 -32 -76 -41 -18
-9 -37 -27 -42 -40 -10 -27 -28 -36 -103 -56 -97 -24 -180 -104 -209 -201 -8
-29 -16 -38 -33 -38 -27 0 -81 -36 -107 -70 -43 -58 -29 -154 33 -224 27 -32
28 -33 18 -104 -9 -68 -2 -171 17 -241 7 -23 6 -22 -36 8 -64 46 -108 55 -204
41 l-81 -12 -38 46 c-26 31 -47 46 -62 46 -27 0 -55 -34 -55 -65 0 -18 -5 -20
-41 -17 -23 3 -59 -3 -83 -12 -43 -16 -44 -16 -167 23 -68 21 -149 46 -181 55
-84 25 -86 32 -41 120 54 107 152 242 253 349 l87 91 34 -35 c19 -20 56 -47
82 -60 35 -17 46 -27 41 -38 -4 -9 -9 -31 -12 -48 -3 -27 0 -34 20 -44 21 -9
33 -7 74 14 27 14 64 37 83 51 26 19 38 23 52 16 27 -15 54 -12 72 8 24 27 21
51 -18 133 -19 41 -39 103 -44 139 -6 36 -15 66 -21 68 -5 2 -10 9 -10 16 0
17 -47 59 -100 89 -62 35 -154 57 -243 57 -64 0 -83 -4 -132 -30 -154 -81
-327 -260 -486 -503 l-78 -118 -5 43 c-3 24 -11 97 -17 163 -12 144 -54 437
-73 518 -16 70 -34 91 -95 112 -48 17 -152 27 -186 19z m1166 -234 c69 -13
186 -70 224 -110 l29 -31 1 -150 0 -151 -33 -28 c-48 -40 -131 -83 -147 -76
-28 10 -10 86 20 86 40 0 95 99 95 172 0 49 -15 30 -34 -43 -20 -77 -43 -109
-78 -109 -49 0 -50 12 -8 94 39 75 50 114 30 101 -6 -4 -25 -36 -43 -72 -41
-84 -58 -95 -92 -63 -30 28 -31 35 -6 61 33 36 80 182 53 165 -5 -3 -21 -37
-36 -76 -33 -83 -55 -103 -97 -88 -32 11 -82 64 -76 82 7 20 35 18 56 -5 11
-12 22 -21 25 -18 2 2 6 38 9 79 6 68 5 73 -8 56 -8 -11 -15 -28 -15 -37 0
-36 -11 -49 -30 -37 -52 33 -72 -52 -22 -101 15 -15 33 -30 39 -32 7 -2 -22
-41 -68 -89 -44 -47 -107 -123 -140 -170 -56 -79 -149 -246 -149 -270 0 -20
51 -42 211 -91 90 -28 166 -53 168 -55 2 -2 -13 -22 -33 -44 -42 -46 -45 -63
-14 -84 30 -21 66 -20 110 2 l36 19 5 -25 c5 -26 -26 -121 -54 -162 -13 -20
-18 -21 -40 -10 -13 7 -78 66 -145 130 -111 109 -230 200 -260 200 -15 0 -69
-75 -90 -125 -8 -19 -18 -35 -23 -35 -14 0 -139 59 -145 68 -3 5 -6 102 -7
215 l-1 207 87 131 c145 217 279 366 426 471 36 25 78 48 95 51 56 8 122 7
175 -3z m1395 -90 c319 -80 551 -345 596 -680 13 -101 2 -214 -32 -324 l-21
-68 -22 20 c-29 26 -63 43 -70 35 -4 -3 8 -13 26 -23 36 -19 94 -106 103 -156
7 -40 -19 -99 -58 -127 -14 -11 -49 -22 -76 -25 -57 -5 -98 12 -154 66 -40 38
-53 35 -17 -4 l20 -22 -28 -20 c-63 -44 -182 -89 -280 -106 -31 -5 -33 -4 -33
25 0 42 -23 92 -54 116 l-26 21 30 12 c40 16 86 71 95 110 9 41 -1 51 -15 14
-20 -55 -34 -75 -67 -95 -30 -19 -58 -22 -226 -30 -106 -5 -209 -11 -229 -15
-37 -6 -40 -3 -121 78 -163 163 -225 361 -181 575 15 74 44 163 63 192 8 12
20 4 58 -39 65 -73 126 -100 223 -100 116 1 195 44 243 135 32 58 30 181 -3
249 -34 70 -91 122 -157 143 l-55 17 49 17 c85 31 129 24 186 -29 36 -34 36
-8 0 30 l-27 28 91 0 c56 0 119 -7 169 -20z m-398 -66 c54 -22 91 -61 123
-129 88 -183 -21 -359 -221 -359 -245 1 -363 266 -192 431 21 20 57 44 82 54
56 22 158 24 208 3z m-4538 -135 c78 -36 146 -86 263 -193 l87 -80 0 -55 c0
-62 22 -118 64 -168 l26 -31 -27 -22 c-16 -12 -64 -39 -109 -61 -69 -34 -90
-39 -148 -39 -64 0 -70 2 -98 32 -96 103 -181 286 -234 503 -23 97 -30 156
-18 167 10 10 127 -22 194 -53z m2164 -196 c-135 -206 -242 -357 -391 -550
-110 -143 -330 -410 -355 -430 -11 -10 -26 -6 -74 16 l-59 29 55 -5 c85 -8
114 9 206 123 44 55 131 171 194 259 62 88 177 246 255 350 77 105 171 234
209 288 37 53 69 97 72 97 2 0 -49 -80 -112 -177z m1703 99 c18 -49 11 -75
-23 -80 -30 -4 -52 14 -36 30 7 7 12 38 12 73 1 54 2 58 15 41 8 -11 22 -39
32 -64z m-2139 38 c19 -11 32 -26 30 -32 -8 -23 -24 -18 -41 12 -14 24 -25 30
-51 30 -87 0 -414 -146 -850 -379 -104 -56 -191 -101 -195 -101 -6 0 -80 108
-96 140 -4 8 19 -11 52 -43 l59 -58 140 68 c76 38 240 121 364 185 219 114
345 170 419 187 66 16 134 12 169 -9z m553 -83 c-7 -7 -14 -2 -22 15 -9 21 -8
31 7 54 l19 28 3 -43 c2 -24 -1 -48 -7 -54z m1872 0 c5 -47 1 -62 -29 -122
-19 -37 -34 -76 -34 -86 0 -33 -17 -29 -45 11 -33 47 -43 116 -25 161 13 30
89 89 116 89 6 0 14 -23 17 -53z m-3683 -176 c11 -29 33 -77 50 -107 l30 -54
-36 -15 c-53 -22 -70 -19 -97 18 -31 42 -47 89 -47 143 0 40 3 45 33 58 17 8
36 13 40 12 5 -1 17 -26 27 -55z m1616 -441 c25 -85 57 -190 70 -233 14 -42
24 -83 21 -90 -5 -17 -168 518 -166 548 1 18 29 -67 75 -225z m1643 98 c39
-43 42 -49 20 -42 -13 4 -44 13 -69 19 -47 13 -61 34 -40 60 21 25 43 16 89
-37z m257 -33 c61 -25 113 -74 140 -131 36 -76 106 -166 164 -210 27 -21 48
-39 46 -41 -2 -2 -43 -10 -91 -18 -49 -8 -92 -20 -97 -27 -27 -39 -52 -112
-67 -196 l-16 -95 -190 -58 c-104 -33 -191 -59 -192 -59 -1 0 23 35 54 78 84
117 189 300 207 361 9 30 16 76 16 102 0 43 3 49 35 69 19 12 35 26 35 32 0 6
-11 3 -25 -6 -32 -21 -45 -20 -45 2 0 32 -61 112 -105 138 -68 39 -74 52 -28
59 21 4 43 8 48 10 25 8 79 4 111 -10z m-235 -35 c104 -38 124 -51 160 -108
25 -40 29 -56 29 -117 0 -80 -19 -153 -61 -236 -47 -93 -167 -267 -274 -394
-55 -66 -115 -140 -134 -165 l-35 -45 48 45 c26 25 77 80 113 123 37 42 71 77
78 77 6 0 134 36 285 80 150 45 275 78 278 75 8 -8 3 -210 -6 -259 -7 -37 -11
-40 -62 -58 -241 -83 -748 -208 -845 -208 -110 0 -162 59 -152 171 9 101 57
174 337 517 l115 140 50 4 c50 3 50 3 51 40 2 35 1 36 -37 40 -45 4 -46 2 -19
-32 12 -16 20 -20 20 -10 0 10 3 11 11 3 18 -18 0 -35 -30 -28 -69 16 -81 25
-81 67 0 35 4 40 33 52 79 32 75 29 51 33 -26 5 -94 -22 -94 -36 0 -23 -30
-10 -36 16 -10 39 5 53 76 76 71 22 66 37 -5 17 -57 -16 -75 -9 -75 29 0 32 1
33 83 46 20 3 37 10 37 15 0 12 -5 12 -70 0 -37 -7 -64 -20 -91 -45 -26 -23
-49 -35 -68 -35 -38 0 -61 9 -61 24 0 13 69 82 110 110 37 26 165 15 271 -24z
m-721 -9 c13 -26 80 -260 80 -282 0 -16 -4 -16 -62 2 -35 10 -65 24 -67 31 -2
7 -17 26 -33 41 -15 16 -28 32 -28 37 0 22 84 190 95 190 3 0 9 -9 15 -19z
m82 -22 c29 -23 107 -95 173 -159 105 -103 127 -120 174 -134 30 -9 73 -16 96
-16 23 0 44 -3 47 -6 4 -3 -63 -90 -148 -192 -170 -206 -267 -342 -284 -399
-47 -160 0 -261 126 -271 82 -7 454 76 752 168 129 39 134 40 162 24 28 -17
31 -17 92 11 84 37 241 130 303 180 28 22 76 60 108 84 74 56 129 119 157 177
11 26 23 44 26 41 9 -8 -21 -58 -84 -143 -221 -298 -548 -518 -917 -619 -204
-56 -359 -78 -528 -77 -240 2 -486 39 -501 77 -3 8 13 37 38 67 140 175 222
368 246 586 18 165 -11 363 -85 575 -12 37 -19 67 -15 67 5 0 32 -19 62 -41z
m-203 -115 c2 -2 1 -10 -2 -19 -5 -12 -11 -13 -34 -3 -30 13 -93 67 -93 80 0
6 112 -44 129 -58z m642 -109 c13 -4 19 -15 19 -36 0 -25 -4 -29 -29 -29 -58
0 -62 7 -38 57 13 26 23 39 25 30 2 -9 12 -19 23 -22z m-2290 -158 c21 -12 39
-25 39 -30 0 -4 -12 -25 -26 -47 -24 -35 -31 -40 -66 -40 -52 0 -92 22 -128
72 -38 52 -38 68 3 121 l32 44 54 -49 c29 -27 71 -59 92 -71z m1805 97 c30 -8
54 -18 54 -22 0 -4 5 -50 10 -102 5 -53 5 -117 1 -145 -5 -28 -9 -41 -10 -30
-1 18 -3 18 -11 3 -7 -11 -6 -26 1 -45 35 -91 -90 -393 -234 -566 l-24 -28
-114 42 c-166 61 -161 56 -99 90 124 68 208 156 275 289 70 142 100 275 93
425 -3 58 -3 105 0 105 2 0 28 -7 58 -16z m1733 -50 c62 -24 89 -106 60 -181
-41 -109 -269 -292 -521 -419 -48 -24 -92 -44 -97 -44 -6 0 -7 10 -1 28 5 15
13 74 18 130 14 162 -8 324 -59 423 l-19 37 28 6 c15 3 83 10 152 16 69 5 139
12 155 14 93 10 247 5 284 -10z m-3765 -47 c10 -41 66 -108 103 -124 20 -8 56
-13 80 -11 40 3 43 2 43 -22 0 -47 -21 -153 -35 -181 -55 -106 -477 -201 -602
-136 -76 40 -80 68 -22 158 82 126 222 253 342 310 75 35 83 36 91 6z m3189
-150 c12 -53 13 -69 3 -73 -7 -3 -40 -13 -74 -23 -61 -19 -62 -19 -62 0 0 40
32 175 52 219 l20 45 23 -50 c12 -27 29 -81 38 -118z m-1238 15 c-4 -20 -13
-63 -21 -95 -8 -32 -14 -61 -14 -63 0 -3 -18 6 -40 18 -32 18 -39 27 -35 43 3
11 13 54 23 97 l16 76 38 -19 c37 -19 38 -22 33 -57z m-699 -344 c34 -56 83
-108 112 -119 51 -20 217 74 341 194 51 49 60 55 45 30 -28 -50 -132 -148
-199 -188 -33 -20 -89 -45 -124 -56 l-65 -20 -44 43 c-85 83 -133 175 -147
285 -5 42 -2 36 24 -39 17 -48 42 -107 57 -130z m352 -105 c-1 -5 4 -18 11
-31 11 -20 15 -21 29 -10 13 11 14 11 8 -1 -6 -9 -5 -12 5 -9 8 3 13 11 11 17
-1 7 2 10 7 7 5 -3 21 4 35 15 15 12 29 19 32 16 8 -8 -103 -93 -166 -126
l-55 -29 -50 25 c-27 14 -61 34 -74 44 l-24 19 34 0 c36 0 165 42 183 60 12
12 17 13 14 3z m1712 -130 c0 -17 -40 -67 -62 -79 -38 -22 -48 -18 -37 14 11
32 99 90 99 65z m-1824 -28 c12 -8 24 -11 28 -8 3 3 6 -1 6 -10 0 -23 -10 -21
-45 8 -32 26 -23 35 11 10z m194 -67 c63 -26 117 -56 135 -75 23 -23 49 -35
108 -49 l77 -18 44 -75 c24 -42 56 -100 71 -130 l27 -54 122 122 121 121 62 0
c51 0 74 -6 130 -35 37 -20 97 -41 132 -48 70 -15 62 -4 104 -130 16 -46 16
-50 -3 -75 l-20 -27 30 -88 30 -88 -35 -76 c-19 -42 -35 -79 -35 -82 0 -3 32
-6 71 -6 l72 0 74 -159 c41 -87 71 -162 66 -165 -5 -3 -85 -57 -178 -120 -94
-63 -172 -115 -174 -117 -2 -2 36 -45 85 -97 49 -51 111 -119 138 -150 42 -50
47 -60 35 -72 -16 -16 -161 -106 -268 -165 l-73 -42 -89 22 c-49 12 -89 25
-89 29 0 4 7 17 16 29 l15 22 39 -20 c84 -43 197 -15 251 62 55 77 7 238 -84
284 -18 9 -33 17 -34 18 -2 1 11 56 28 122 24 93 32 148 36 249 6 150 -8 228
-58 327 -20 39 -27 64 -20 66 17 6 13 31 -10 69 -25 39 -65 63 -110 63 -18 0
-55 11 -83 25 -87 42 -167 57 -280 53 -119 -5 -183 -26 -283 -95 -60 -41 -66
-43 -82 -29 -22 20 -41 20 -70 0 -21 -15 -23 -22 -17 -64 l6 -47 -38 -11 c-44
-13 -122 -88 -149 -141 -26 -53 -24 -154 5 -212 28 -57 17 -103 -26 -114 -25
-6 -38 5 -147 117 -130 134 -231 268 -296 391 -22 43 -39 80 -37 81 1 2 122
-9 268 -23 217 -22 266 -25 268 -14 2 8 -1 76 -7 151 -6 76 -11 230 -11 341 0
189 1 203 18 198 9 -3 64 -25 122 -49z m1501 4 c-29 -57 -77 -101 -146 -134
l-60 -29 42 5 c63 6 63 -16 0 -65 -49 -40 -159 -99 -183 -99 -6 0 -18 16 -28
36 -15 33 -15 37 0 48 13 10 3 12 -53 12 -55 0 -83 6 -147 34 -88 37 -86 42
19 54 33 4 97 16 143 27 101 23 102 23 102 2 1 -14 4 -12 14 7 11 19 36 32 98
53 47 16 114 43 149 60 35 18 65 31 67 30 2 0 -6 -19 -17 -41z m-1663 -77 c-3
-23 -5 -25 -21 -13 -18 13 -18 15 0 46 15 27 18 29 21 12 2 -11 2 -31 0 -45z
m-38 -29 l35 -23 3 -139 c2 -77 7 -181 12 -233 11 -120 4 -136 -54 -128 -22 3
-120 13 -216 23 -96 9 -176 18 -178 20 -8 6 190 317 282 442 26 35 54 62 64
62 9 0 33 -11 52 -24z m867 -61 c2 -1 -42 -47 -97 -103 l-100 -101 -25 48
c-13 27 -40 75 -59 107 -20 32 -36 61 -36 64 0 4 311 -10 317 -15z m743 -48
c0 -7 11 -36 25 -64 l24 -52 -37 -31 c-41 -34 -154 -94 -192 -103 -23 -6 -29
0 -58 52 -37 68 -38 71 -13 71 31 0 154 67 196 107 39 38 55 43 55 20z m85
-87 c-3 -5 -10 -10 -16 -10 -5 0 -9 5 -9 10 0 6 7 10 16 10 8 0 12 -4 9 -10z
m-320 -160 c3 -5 -1 -10 -10 -10 -9 0 -13 5 -10 10 3 6 8 10 10 10 2 0 7 -4
10 -10z m-491 -65 c72 -25 104 -45 73 -45 -28 0 -72 -26 -195 -112 -141 -99
-181 -117 -253 -118 -52 0 -59 3 -86 34 -17 18 -40 55 -53 81 l-23 48 34 28
c54 44 122 78 201 99 92 25 202 20 302 -15z m232 -89 c55 -55 47 -66 -43 -66
-91 0 -117 -11 -248 -95 -136 -88 -205 -117 -289 -123 -39 -2 -91 1 -114 8
-77 20 -163 120 -186 214 -7 29 14 66 39 66 17 0 60 -49 83 -96 11 -22 39 -57
61 -77 34 -31 48 -37 85 -37 69 0 121 24 265 122 151 102 183 117 260 118 47
0 57 -4 87 -34z m-1547 -93 c24 -52 118 -188 178 -258 l60 -70 -23 -50 c-14
-29 -21 -59 -18 -72 6 -22 3 -23 -52 -24 -74 0 -213 -15 -221 -22 -19 -19 179
-271 323 -412 l103 -99 -93 -91 c-51 -51 -107 -111 -124 -134 l-31 -43 -16 39
c-90 215 -295 827 -295 880 0 24 177 383 188 383 5 0 14 -12 21 -27z m1837
-28 l22 -54 -45 -7 c-24 -3 -47 -4 -50 -1 -6 7 38 117 47 117 3 0 15 -25 26
-55z m-277 26 c80 -80 116 -333 77 -534 -35 -181 -143 -439 -246 -592 -127
-188 -315 -290 -494 -270 -249 29 -433 199 -461 429 -7 52 -6 56 11 49 13 -5
9 4 -13 30 -18 21 -33 47 -33 58 0 12 28 50 67 90 71 74 76 89 12 38 -30 -24
-39 -27 -39 -14 0 26 30 155 52 223 l20 62 36 -31 c54 -48 114 -71 185 -71 52
0 58 -1 37 -10 -29 -11 -164 -14 -200 -4 -23 6 -23 6 -6 -5 49 -30 235 -15
229 18 -1 6 7 13 17 16 25 7 25 4 -5 -41 -37 -56 -42 -95 -15 -122 39 -39 118
-10 153 55 6 12 -7 4 -31 -17 -56 -51 -122 -51 -122 -1 0 35 24 77 95 166 65
82 68 90 69 204 l0 63 36 6 c19 3 48 10 63 14 l28 9 -35 -48 c-50 -68 -66
-111 -66 -178 0 -163 196 -307 356 -264 108 29 187 142 187 269 0 167 -138
299 -292 278 l-46 -6 78 50 c100 64 127 78 174 89 64 15 102 12 122 -8z m-866
-64 c49 -83 111 -125 208 -141 34 -6 37 -9 42 -51 11 -77 15 -75 -167 -76 -88
0 -192 -3 -230 -8 -80 -9 -81 -7 -80 84 0 66 16 103 67 161 29 34 95 73 124
74 6 0 23 -20 36 -43z m653 -88 c96 -24 173 -156 161 -278 -5 -56 -33 -131
-49 -131 -5 0 -27 12 -50 26 -60 38 -284 150 -350 174 -54 20 -57 22 -48 46
26 67 78 123 150 161 31 16 126 17 186 2z m-1011 -270 c78 -80 79 -81 46 -75
-19 3 -65 9 -103 13 l-68 6 0 33 c0 32 27 104 40 104 3 0 41 -37 85 -81z m602
67 c5 -4 -40 -82 -60 -103 -93 -102 -289 -74 -368 54 -12 19 -19 37 -15 40 14
14 425 22 443 9z m143 -32 c103 -42 333 -161 370 -191 7 -6 -38 -40 -85 -65
-147 -78 -375 67 -375 240 0 50 4 51 90 16z m1008 -194 c27 -69 57 -149 66
-178 l15 -53 -107 -79 -107 -80 -60 68 c-33 37 -96 105 -140 151 -50 52 -75
85 -67 88 7 3 86 54 175 113 89 59 165 105 168 101 4 -3 29 -62 57 -131z
m-1744 74 c15 -6 12 -11 -18 -36 -80 -65 -67 -181 27 -242 16 -11 27 -27 27
-40 0 -12 6 -30 14 -41 7 -11 16 -45 20 -75 13 -105 66 -227 123 -284 14 -15
24 -28 22 -31 -3 -2 -100 -7 -217 -11 -172 -6 -212 -5 -212 6 0 7 55 68 123
134 l122 121 -99 95 c-102 98 -191 199 -290 330 l-56 75 42 7 c51 8 347 2 372
-8z m107 -67 c-11 -41 -22 -97 -26 -123 -10 -74 -15 -84 -37 -84 -27 0 -85 62
-93 100 -16 73 37 148 123 173 26 8 48 13 50 12 2 -1 -6 -36 -17 -78z m1219
-236 c62 -59 80 -169 37 -232 -30 -44 -92 -79 -142 -79 -41 0 -129 34 -123 47
2 5 28 58 59 118 30 61 62 129 72 152 20 50 39 49 97 -6z m-253 -407 c15 -48
15 -57 3 -65 -21 -13 -81 -29 -110 -29 -14 0 -39 -4 -55 -9 -27 -7 -21 2 50
75 44 45 83 83 87 83 4 1 15 -24 25 -55z m127 15 c5 -4 -15 -19 -44 -34 -28
-14 -53 -25 -55 -23 -1 2 -7 17 -12 33 -6 17 -14 37 -18 47 -6 15 -2 15 57 1
35 -9 67 -19 72 -24z m-784 -177 c54 -21 83 -25 173 -26 107 -1 108 -1 85 -20
-38 -31 -142 -75 -194 -81 -84 -10 -141 37 -160 134 -7 31 -5 34 12 26 10 -4
48 -19 84 -33z m530 -658 c0 -22 -2 -25 -15 -14 -12 10 -13 16 -4 26 16 20 19
18 19 -12z m529 -784 c53 -24 98 -25 167 -4 57 19 84 14 84 -14 0 -11 16 -26
43 -39 38 -20 40 -22 15 -22 -78 -2 -320 48 -398 82 l-35 15 40 1 c22 0 60 -8
84 -19z"/>
<path d="M6626 7472 c-4 -13 -5 -41 -1 -63 7 -39 7 -39 -20 -29 -77 29 -189
-5 -259 -80 -62 -67 -86 -120 -86 -196 0 -154 124 -273 285 -273 140 0 240 81
268 216 l12 61 29 -15 c49 -26 38 -8 -20 32 -53 37 -121 119 -159 194 -9 18
-22 65 -29 105 -10 55 -14 66 -20 48z m-17 -113 c24 -9 39 -25 61 -69 16 -31
52 -82 79 -112 45 -49 51 -61 51 -100 0 -57 -40 -139 -88 -178 -20 -17 -39
-30 -42 -30 -3 0 -14 13 -23 29 -45 77 -181 184 -294 231 -35 15 -66 29 -69
32 -10 10 43 102 78 135 66 64 168 89 247 62z m-208 -275 c105 -56 266 -200
245 -221 -13 -13 -98 -21 -144 -14 -58 9 -129 48 -165 91 -42 50 -81 173 -61
193 8 8 43 -6 125 -49z"/>
<path d="M6560 7130 c0 -5 -7 -10 -16 -10 -12 0 -15 -6 -10 -22 3 -13 6 -26 6
-30 0 -4 14 -2 30 3 33 12 37 24 16 52 -15 19 -26 22 -26 7z"/>
<path d="M5660 7242 c0 -49 80 -102 155 -102 29 0 36 3 25 10 -8 5 -25 10 -38
10 -37 0 -100 38 -117 70 -18 34 -25 38 -25 12z"/>
<path d="M6055 7174 c-48 -25 -65 -45 -65 -76 0 -35 49 -68 100 -67 l35 0 -46
14 c-86 27 -99 75 -27 107 18 8 44 20 58 26 l25 11 -25 0 c-14 1 -38 -6 -55
-15z"/>
<path d="M5786 7015 c-114 -41 -160 -171 -89 -255 36 -43 68 -57 180 -80 65
-13 130 -36 192 -65 118 -57 154 -60 193 -17 24 28 28 41 28 90 0 99 -53 187
-153 256 -112 77 -254 106 -351 71z m107 -37 c-11 -18 -27 -34 -37 -36 -24 -5
-46 16 -46 44 0 22 4 24 51 24 l51 0 -19 -32z m95 17 c29 -9 52 -19 52 -23 0
-4 -9 -22 -20 -39 -23 -38 -63 -45 -80 -14 -9 18 -15 91 -7 91 2 0 27 -7 55
-15z m-214 -19 c-3 -9 -16 -16 -28 -16 -20 0 -20 1 4 20 28 21 33 20 24 -4z
m339 -41 c41 -28 44 -40 21 -73 -23 -33 -52 -28 -69 11 -12 30 -10 87 4 87 3
0 23 -11 44 -25z m108 -97 c17 -23 18 -32 9 -43 -30 -36 -70 -6 -70 53 0 52
19 49 61 -10z"/>
<path d="M5852 7465 c-18 -8 -22 -15 -17 -35 8 -32 8 -32 37 -21 32 12 41 34
20 52 -13 10 -23 11 -40 4z"/>
<path d="M4092 5758 c-18 -11 -50 -27 -70 -34 -22 -8 -29 -13 -17 -13 19 -1
125 54 125 64 0 7 -2 6 -38 -17z"/>
<path d="M4430 4931 c0 -21 48 -61 75 -61 30 0 95 31 116 56 10 12 0 10 -36
-9 -63 -34 -92 -34 -127 0 -15 15 -28 21 -28 14z"/>
<path d="M4541 4344 c-1 -15 45 -82 72 -106 28 -24 98 -61 103 -55 3 3 -15 16
-39 30 -41 24 -97 80 -124 123 -6 10 -12 14 -12 8z"/>
<path d="M4142 4176 c-63 -16 -109 -56 -118 -102 -12 -63 19 -94 94 -94 70 0
79 -7 91 -68 17 -85 59 -119 83 -67 6 14 14 25 18 25 4 0 10 -35 13 -78 7
-117 54 -194 106 -177 25 8 41 48 41 105 0 58 9 63 30 17 18 -39 53 -48 70
-17 6 12 9 24 7 27 -3 2 -10 -5 -17 -16 -17 -33 -37 -25 -56 24 -9 25 -22 44
-28 42 -6 -2 -14 -36 -17 -77 -4 -55 -10 -76 -24 -86 -45 -33 -91 41 -102 166
-8 89 -24 111 -45 65 -22 -49 -59 -15 -71 68 -6 36 -5 37 21 31 15 -4 83 -38
152 -75 220 -120 312 -143 353 -88 26 36 26 113 -1 165 -24 48 -105 125 -160
153 -110 56 -332 85 -440 57z m94 -38 c-9 -45 -28 -62 -60 -54 -30 7 -65 64
-44 71 25 8 53 13 82 14 27 1 28 -1 22 -31z m117 26 c12 -4 13 -12 7 -36 -12
-39 -28 -58 -51 -58 -24 0 -49 37 -49 72 0 26 3 28 39 28 22 0 46 -3 54 -6z
m125 -25 c20 -8 21 -12 11 -31 -19 -37 -41 -58 -60 -58 -25 0 -49 38 -49 78 0
33 0 33 38 26 20 -4 47 -11 60 -15z m-375 -19 c-7 -27 -31 -46 -43 -34 -6 6
-4 18 6 32 19 28 44 29 37 2z m467 -15 c27 -13 51 -29 54 -34 11 -17 -39 -76
-66 -79 -37 -4 -62 43 -53 99 4 21 9 39 11 39 3 0 27 -11 54 -25z m-480 -92
c0 -16 -22 -17 -38 -1 -8 8 -8 17 0 31 10 20 11 20 24 2 8 -10 14 -25 14 -32z
m81 37 c11 -6 19 -21 19 -35 0 -22 -4 -25 -35 -25 -28 0 -35 4 -35 19 0 47 16
59 51 41z m117 -2 c10 -10 18 -88 10 -88 -2 0 -21 7 -43 15 -42 14 -44 23 -19
63 16 25 34 28 52 10z m406 -40 c41 -47 41 -56 3 -78 -48 -27 -81 23 -63 96 9
33 19 30 60 -18z m-284 7 c12 -14 8 -84 -6 -107 -3 -4 -23 2 -44 15 -44 24
-45 43 -7 85 24 26 40 28 57 7z m115 -55 c13 -15 16 -30 13 -65 -3 -25 -8 -48
-11 -51 -3 -3 -28 6 -56 21 -48 24 -51 27 -40 48 16 31 50 67 64 67 7 0 20 -9
30 -20z m225 -78 c0 -23 -4 -32 -12 -30 -16 6 -22 32 -13 66 5 20 8 23 16 11
5 -7 9 -29 9 -47z m-102 -22 c4 -68 -6 -76 -63 -51 l-47 21 17 27 c24 38 46
54 70 51 16 -2 20 -12 23 -48z m59 -31 c18 -18 3 -49 -23 -49 -31 0 -36 12
-18 38 17 25 25 27 41 11z"/>
<path d="M4827 3835 c6 -117 0 -130 -70 -139 -86 -11 -91 -13 -35 -15 66 -1
105 13 114 42 9 28 5 134 -6 177 -6 24 -7 2 -3 -65z"/>
<path d="M4330 4640 c0 -11 5 -29 12 -39 11 -18 12 -18 30 -1 19 17 19 19 2
39 -23 27 -44 27 -44 1z"/>
<path d="M4880 4498 c0 -5 -4 -7 -9 -4 -5 3 -12 -1 -15 -10 -10 -25 -7 -31 14
-37 21 -6 65 26 56 41 -8 14 -46 22 -46 10z"/>
<path d="M2045 4988 c-44 -29 -56 -46 -102 -138 l-51 -105 -69 -1 c-52 -1 -79
-7 -118 -27 -27 -14 -90 -44 -140 -65 -80 -35 -517 -240 -555 -261 -19 -10
-49 -87 -49 -128 -1 -28 14 -46 130 -155 71 -67 138 -127 147 -132 9 -5 -46
51 -122 125 l-140 135 50 18 c27 11 110 46 184 79 74 33 199 86 276 118 253
103 378 176 391 227 l6 25 24 -27 c19 -22 22 -35 17 -62 -6 -30 -2 -38 34 -74
25 -25 49 -40 65 -40 28 0 37 -16 37 -65 0 -25 -8 -40 -30 -58 -46 -39 -333
-197 -358 -197 -5 0 -23 36 -41 80 l-33 80 -63 0 c-78 0 -177 -45 -201 -92
-14 -27 -14 -32 3 -61 11 -18 29 -58 42 -90 23 -56 23 -58 5 -73 -18 -13 -18
-14 7 -9 24 6 28 0 83 -117 32 -68 67 -133 79 -145 25 -28 80 -30 135 -7 39
16 92 61 92 77 0 5 -9 -2 -20 -16 -45 -57 -169 -88 -202 -49 -30 34 -188 382
-188 414 0 36 144 104 205 96 25 -3 35 -16 78 -103 28 -55 65 -143 84 -195 18
-52 31 -79 27 -60 -3 19 -24 84 -46 143 -22 59 -39 109 -37 111 2 1 67 36 144
76 257 134 255 132 245 265 -4 45 25 115 85 210 74 116 95 162 95 208 0 49
-45 88 -107 94 -42 4 -54 1 -98 -29z m166 -17 c16 -16 29 -35 29 -43 -1 -31
-53 -136 -111 -224 -56 -86 -79 -110 -79 -84 0 16 -43 34 -76 32 -27 -2 -35 3
-53 34 -19 32 -20 38 -6 62 8 15 28 58 45 97 48 108 102 155 178 155 35 0 49
-6 73 -29z m-354 -257 c21 -55 -85 -126 -367 -243 -118 -49 -271 -115 -340
-146 -68 -31 -137 -59 -152 -62 l-28 -5 16 53 c9 30 19 57 22 60 4 4 57 29
117 57 61 27 229 106 375 175 203 96 275 125 308 126 30 1 44 -4 49 -15z m172
-151 c19 -13 28 -23 20 -23 -38 0 -89 66 -72 93 5 7 10 0 13 -18 3 -19 17 -37
39 -52z m-441 -245 c20 -20 14 -25 -45 -37 -54 -10 -136 -45 -175 -73 -22 -16
-32 -5 -24 26 15 60 203 125 244 84z"/>
<path d="M1792 4530 c-23 -17 -42 -33 -42 -38 1 -9 43 -65 88 -116 l32 -37 40
22 c22 13 40 30 40 40 0 22 -91 159 -106 159 -6 0 -30 -14 -52 -30z"/>
<path d="M7337 4010 c-24 -28 -67 -126 -67 -153 0 -17 -39 -79 -59 -94 -9 -7
-36 -13 -61 -13 -62 0 -103 -28 -126 -84 -10 -25 -21 -46 -24 -46 -3 0 -18 18
-33 40 -28 39 -50 50 -62 30 -3 -5 0 -8 7 -5 17 6 28 -3 58 -47 14 -21 29 -36
34 -35 6 2 16 21 23 44 21 61 51 84 122 92 77 9 103 33 132 120 41 125 79 179
118 166 32 -10 38 -52 12 -83 -51 -65 -59 -103 -25 -116 27 -10 82 21 108 62
27 43 69 78 74 63 2 -5 -4 -21 -13 -35 -23 -34 -13 -56 24 -56 16 0 31 -5 33
-12 3 -7 37 -15 82 -19 111 -11 154 -46 167 -138 l6 -46 2 41 c1 28 -6 52 -21
74 -39 57 -71 74 -148 78 -43 3 -74 10 -81 18 -6 8 -20 14 -31 14 -26 0 -31
21 -14 55 9 17 12 33 7 38 -17 17 -52 -5 -92 -58 -41 -54 -56 -65 -90 -65 -28
0 -24 31 11 75 34 43 39 84 12 108 -28 25 -57 21 -85 -13z"/>
<path d="M1315 3990 c-3 -6 1 -7 9 -4 18 7 21 14 7 14 -6 0 -13 -4 -16 -10z"/>
<path d="M1270 3970 c-8 -5 -10 -10 -5 -10 6 0 17 5 25 10 8 5 11 10 5 10 -5
0 -17 -5 -25 -10z"/>
<path d="M7723 3939 c14 -8 16 -14 6 -25 -16 -20 -28 -17 -39 9 -10 22 -10 22
-7 -3 2 -30 37 -39 57 -15 10 12 10 18 0 30 -7 8 -18 15 -24 15 -6 0 -3 -5 7
-11z"/>
<path d="M1771 3854 c0 -11 3 -14 6 -6 3 7 2 16 -1 19 -3 4 -6 -2 -5 -13z"/>
<path d="M7383 3701 c-79 -27 -152 -80 -234 -171 -99 -109 -141 -134 -219
-128 -33 2 -55 1 -48 -4 24 -15 108 -8 147 12 21 10 70 53 107 94 92 101 174
162 253 186 143 45 252 12 322 -98 16 -25 29 -41 29 -35 0 17 -53 90 -82 112
-68 54 -177 66 -275 32z"/>
<path d="M6890 3656 c0 -8 4 -17 9 -20 5 -4 7 3 4 14 -6 23 -13 26 -13 6z"/>
<path d="M6763 3634 c-3 -8 1 -22 9 -30 19 -19 52 3 42 29 -8 21 -43 22 -51 1z
m37 -9 c0 -8 -4 -15 -10 -15 -5 0 -10 7 -10 15 0 8 5 15 10 15 6 0 10 -7 10
-15z"/>
<path d="M7845 3629 c-4 -6 -5 -12 -2 -15 2 -3 7 2 10 11 7 17 1 20 -8 4z"/>
<path d="M6506 3614 c-65 -24 -257 -122 -316 -162 l-55 -37 1 -63 c1 -55 8
-77 52 -165 61 -124 123 -191 173 -189 37 1 240 97 367 174 75 45 82 52 82 81
0 18 -9 46 -19 63 l-19 31 43 34 c40 32 42 35 27 57 -18 27 -11 37 16 23 79
-42 133 42 81 126 -20 32 -22 33 -40 17 -11 -9 -19 -23 -19 -31 0 -10 -5 -11
-19 -4 -22 12 -31 5 -31 -25 0 -26 -15 -40 -25 -23 -13 21 -49 27 -82 14 -30
-13 -32 -12 -43 16 -30 71 -92 93 -174 63z m117 -17 c19 -15 37 -48 56 -102
15 -44 49 -111 74 -148 72 -104 70 -109 -71 -189 -102 -59 -241 -128 -257
-128 -3 0 -5 10 -5 23 0 28 -24 63 -80 118 -39 37 -49 57 -70 128 -16 54 -34
93 -52 111 l-27 27 92 50 c134 72 269 132 302 133 6 0 23 -10 38 -23z m312
-27 c21 -41 19 -87 -4 -100 -29 -15 -56 -12 -82 9 -19 15 -21 21 -11 34 7 8
10 22 6 31 -7 17 11 22 21 6 11 -18 22 -10 29 20 7 38 21 38 41 0z m-135 -84
c31 -46 37 -62 20 -51 -7 4 -9 -2 -5 -18 5 -18 1 -28 -20 -41 -32 -21 -37 -17
-64 39 -26 56 -27 70 -1 28 28 -46 33 -41 10 10 -11 23 -19 49 -19 57 0 8 6 1
13 -16 8 -18 19 -35 25 -38 15 -10 13 4 -4 34 -18 32 -18 40 0 40 8 0 28 -20
45 -44z m-594 -176 c49 -106 59 -121 103 -150 84 -53 116 -104 86 -134 -27
-27 -56 -19 -100 28 -43 46 -116 183 -134 249 -9 36 -8 38 12 35 12 -2 26 -14
33 -28z"/>
<path d="M3961 3525 c-63 -41 -136 -93 -162 -115 -28 -24 -54 -38 -61 -34 -6
4 -8 3 -4 -4 3 -6 -17 -32 -46 -59 -75 -69 -98 -94 -98 -108 0 -20 56 -98 130
-177 38 -42 67 -79 63 -81 -5 -3 -61 -14 -125 -26 -157 -28 -164 -31 -171 -78
-9 -53 -9 -73 2 -73 6 0 11 23 13 52 3 60 -6 55 178 88 63 12 118 24 122 28 4
4 -23 41 -58 82 -36 41 -84 99 -106 128 l-41 53 39 41 c81 85 212 192 328 270
136 91 133 88 120 88 -5 0 -60 -34 -123 -75z"/>
<path d="M4126 3553 c-4 -21 -38 -148 -76 -283 -58 -209 -138 -496 -156 -565
-4 -17 -3 -18 6 -5 9 12 10 8 6 -19 -32 -182 -40 -302 -39 -556 0 -196 5 -295
16 -360 17 -98 17 -74 -3 130 -36 375 21 804 182 1375 67 238 86 320 75 320
-2 0 -8 -17 -11 -37z"/>
<path d="M7851 3537 c-1 -10 9 -21 23 -27 13 -5 26 -14 29 -20 3 -6 4 -5 3 2
-1 7 -12 17 -24 23 -12 5 -23 16 -26 25 -3 11 -4 11 -5 -3z"/>
<path d="M7742 3515 c0 -16 2 -22 5 -12 2 9 2 23 0 30 -3 6 -5 -1 -5 -18z"/>
<path d="M7807 3412 c-20 -22 -21 -36 -5 -61 9 -15 9 -23 -1 -35 -17 -20 -30
-20 -53 1 -10 9 -18 11 -18 5 0 -13 32 -32 55 -32 22 0 42 47 27 62 -16 16
-15 43 2 57 10 8 16 9 21 1 7 -12 42 -13 49 -1 3 4 -6 6 -19 3 -15 -2 -25 0
-25 7 0 16 -15 13 -33 -7z"/>
<path d="M7731 3384 c0 -11 3 -14 6 -6 3 7 2 16 -1 19 -3 4 -6 -2 -5 -13z"/>
<path d="M6844 3346 c-10 -26 4 -48 28 -44 17 2 23 10 23 28 0 18 -6 26 -23
28 -13 2 -25 -3 -28 -12z m46 -16 c0 -13 -7 -20 -20 -20 -13 0 -20 7 -20 20 0
13 7 20 20 20 13 0 20 -7 20 -20z"/>
<path d="M6949 3341 c8 -5 10 -14 6 -22 -6 -11 -5 -11 5 -2 14 12 6 33 -13 33
-8 0 -7 -3 2 -9z"/>
<path d="M7734 3245 c-3 -8 -3 -19 1 -25 8 -13 35 -13 35 0 0 5 -7 7 -15 4 -9
-4 -15 0 -15 9 0 8 6 18 13 20 9 4 9 6 -1 6 -7 1 -15 -6 -18 -14z"/>
<path d="M7820 3225 c-6 -8 -10 -22 -7 -32 4 -14 5 -14 6 4 1 30 21 40 38 18
7 -11 13 -14 13 -9 0 11 -21 34 -31 34 -4 0 -12 -7 -19 -15z"/>
<path d="M7845 3180 c-16 -7 -17 -9 -3 -9 9 -1 20 4 23 9 7 11 7 11 -20 0z"/>
<path d="M3491 2745 c-10 -42 6 -210 35 -371 l17 -92 -49 -73 c-66 -101 -203
-235 -364 -359 -184 -141 -287 -224 -275 -219 6 2 94 67 195 144 229 173 372
310 449 426 l57 87 -17 87 c-10 48 -23 138 -28 199 -6 61 -13 127 -14 146 -2
19 -5 31 -6 25z"/>
<path d="M4592 2670 c0 -19 2 -27 5 -17 2 9 2 25 0 35 -3 9 -5 1 -5 -18z"/>
<path d="M3820 2533 c-145 -313 -368 -547 -785 -823 -101 -67 -153 -105 -115
-85 52 28 339 225 410 281 115 92 282 263 353 361 61 85 142 233 177 322 37
94 15 65 -40 -56z"/>
<path d="M4601 2614 c-2 -80 105 -307 203 -431 39 -49 69 -98 76 -125 28 -101
147 -394 157 -384 2 2 -7 26 -20 53 -30 59 -112 275 -122 322 l-7 35 63 -51
c83 -66 186 -131 278 -178 91 -45 253 -116 257 -112 2 2 -45 25 -104 52 -243
111 -401 213 -513 333 -116 124 -196 264 -243 424 -14 46 -25 73 -25 62z"/>
<path d="M2092 2468 c-7 -29 -17 -88 -22 -130 -12 -87 -17 -72 80 -251 29 -54
63 -131 76 -170 15 -47 23 -62 24 -45 0 37 -42 147 -91 236 -22 39 -35 72 -29
72 5 0 10 -4 10 -9 0 -5 14 -14 30 -21 34 -14 80 -1 80 22 0 9 3 8 10 -2 5 -8
9 -31 9 -50 -1 -19 -3 -27 -6 -17 -2 9 -9 17 -14 17 -12 0 -12 -1 6 -44 15
-36 15 -38 -7 -55 -20 -17 -21 -20 -6 -34 14 -14 17 -14 22 -2 3 8 0 15 -6 15
-6 0 -4 8 6 18 37 42 18 193 -45 340 -27 62 -91 162 -105 162 -6 0 -16 -24
-22 -52z m44 0 c4 -7 3 -8 -4 -4 -7 4 -12 2 -12 -5 0 -7 -3 -10 -6 -6 -6 5 3
27 11 27 2 0 7 -5 11 -12z m30 -39 c4 -7 -7 -22 -25 -36 -17 -13 -31 -31 -31
-38 0 -8 -4 -17 -10 -20 -6 -4 -10 8 -10 29 0 51 55 98 76 65z m24 -49 c0 -5
-2 -10 -4 -10 -3 0 -8 5 -11 10 -3 6 -1 10 4 10 6 0 11 -4 11 -10z m-30 -7
c-1 -14 -27 -43 -33 -37 -7 7 14 44 25 44 5 0 8 -3 8 -7z m-21 -75 c12 -15 11
-18 -3 -18 -10 0 -16 8 -16 22 0 12 1 19 3 17 1 -2 9 -12 16 -21z m80 -52
c-22 -23 -43 -11 -54 31 -9 38 12 45 45 14 27 -25 27 -27 9 -45z m-70 -2 c-6
-8 -15 -14 -20 -14 -14 0 -11 28 4 33 20 7 29 -4 16 -19z m51 -51 c0 -12 -4
-25 -10 -28 -6 -4 -7 1 -3 12 5 15 3 16 -7 6 -26 -24 -54 19 -29 44 17 17 49
-6 49 -34z m50 31 c0 -8 -4 -12 -10 -9 -5 3 -10 10 -10 16 0 5 5 9 10 9 6 0
10 -7 10 -16z m-16 -33 c3 -5 -1 -14 -9 -21 -13 -10 -15 -9 -15 9 0 21 14 28
24 12z"/>
<path d="M2185 2280 c-8 -13 3 -30 21 -30 18 0 18 14 0 29 -10 8 -16 9 -21 1z"/>
<path d="M7200 2379 c-67 -21 -91 -21 -285 -3 -45 4 -81 2 -100 -6 l-30 -12
37 -19 c47 -24 77 -63 84 -110 7 -42 21 -49 124 -65 61 -9 114 -37 171 -91 47
-44 49 -45 49 -21 0 30 -56 85 -140 138 l-55 35 40 5 c22 3 52 13 68 24 24 16
38 17 115 11 87 -7 143 -23 156 -44 5 -8 0 -8 -19 -1 -24 9 -25 8 -14 -11 9
-18 17 -20 55 -14 38 5 47 3 69 -19 14 -14 25 -33 25 -44 0 -31 -51 -122 -82
-145 -27 -20 -28 -22 -8 -29 24 -9 27 -53 4 -62 -8 -3 -25 -1 -36 5 -15 8 -19
17 -14 39 3 19 1 30 -9 34 -22 8 -18 32 10 74 26 39 21 52 -22 52 -20 0 -22
-4 -17 -30 4 -16 3 -45 0 -64 -6 -31 -12 -36 -55 -51 -55 -18 -69 -43 -44 -81
14 -22 14 -26 -2 -50 -9 -14 -14 -28 -11 -31 9 -9 177 46 230 75 28 16 71 36
96 45 40 15 51 26 84 83 20 36 40 81 43 99 5 30 3 33 -14 29 -22 -6 -53 19
-53 41 0 17 30 34 48 28 31 -11 -6 54 -57 100 -33 30 -49 37 -81 37 -25 0 -63
12 -100 30 -37 19 -75 30 -98 30 -20 -1 -50 1 -67 4 -17 3 -59 -4 -95 -15z"/>
<path d="M5605 2371 c-38 -17 -72 -47 -64 -55 2 -3 39 -11 81 -19 74 -14 78
-14 83 4 13 41 93 30 82 -11 -5 -18 2 -18 208 -6 106 7 138 5 174 -7 40 -14
46 -14 69 1 17 11 44 16 85 15 56 -2 62 -5 89 -38 24 -28 36 -35 66 -35 56 0
110 18 127 42 12 19 19 20 42 12 38 -13 45 -54 9 -54 -25 0 -25 0 -10 -37 11
-26 15 -61 12 -123 -2 -59 0 -83 7 -75 54 65 171 55 163 -13 -2 -22 2 -29 27
-37 19 -6 31 -18 33 -32 3 -21 4 -21 32 -5 27 15 32 16 57 2 15 -9 34 -27 42
-41 12 -22 12 -29 -2 -57 l-15 -32 31 17 c18 9 49 27 70 41 34 23 37 28 31 58
-4 21 0 44 10 65 28 55 23 64 -46 78 -171 34 -309 106 -323 170 -3 16 -14 36
-23 44 -33 28 -137 75 -192 86 -68 13 -142 29 -195 42 -22 5 -114 12 -204 15
-185 6 -209 1 -242 -52 -21 -34 -40 -40 -86 -28 -12 3 -24 17 -27 30 -13 52
-123 71 -201 35z"/>
<path d="M7546 2382 c-13 -22 28 -37 109 -40 85 -3 107 5 79 29 -19 16 -179
26 -188 11z"/>
<path d="M5345 2330 c-56 -8 -173 -48 -181 -62 -9 -15 113 2 205 28 88 25 108
34 73 34 -11 0 -26 2 -34 4 -7 2 -36 0 -63 -4z"/>
<path d="M7797 2333 c-11 -10 -8 -52 5 -76 6 -12 12 -39 12 -61 1 -41 22 -64
49 -53 8 3 29 26 47 52 l31 46 -25 30 c-14 17 -26 34 -26 39 0 8 -54 30 -75
30 -6 0 -15 -3 -18 -7z"/>
<path d="M2226 2064 c-8 -21 -8 -21 9 -21 8 0 15 6 15 13 0 20 -17 26 -24 8z"/>
<path d="M6636 1911 c-4 -29 -5 -56 -1 -59 3 -3 5 6 5 20 0 34 9 40 34 23 11
-8 30 -15 41 -14 13 1 10 4 -11 10 -35 10 -50 24 -56 54 -2 11 -7 -4 -12 -34z"/>
<path d="M2277 1890 c-9 -57 -63 -182 -106 -243 -18 -27 -31 -50 -29 -52 5 -6
37 -9 66 -7 31 3 52 55 52 133 0 33 7 88 16 121 8 33 13 67 11 77 -2 9 -6 -4
-10 -29z m-31 -215 c-4 -18 -13 -38 -21 -45 -8 -7 -13 -15 -11 -19 3 -4 -4 -8
-15 -8 -28 -2 -24 26 14 89 34 58 46 52 33 -17z m-76 -65 c0 -5 -5 -10 -11
-10 -5 0 -7 5 -4 10 3 6 8 10 11 10 2 0 4 -4 4 -10z"/>
<path d="M6760 1904 l-25 -15 25 7 c28 7 35 12 29 18 -2 2 -15 -2 -29 -10z"/>
<path d="M6780 1876 c0 -7 -9 -25 -21 -40 -27 -35 -167 -138 -178 -132 -5 3
-17 -4 -27 -17 l-19 -22 25 20 25 20 -19 -22 c-10 -12 -21 -22 -25 -21 -20 2
-31 -4 -25 -14 4 -6 3 -8 -4 -4 -6 3 -18 -1 -26 -10 -9 -8 -16 -13 -16 -9 0 4
-7 -1 -16 -9 -8 -9 -20 -13 -26 -10 -7 4 -8 2 -4 -4 7 -12 -10 -52 -28 -64 -6
-4 -21 -8 -34 -8 -13 0 -43 -13 -67 -30 -29 -20 -56 -30 -80 -30 -20 0 -34 -4
-31 -9 6 -10 -247 -126 -258 -119 -2 2 -14 -9 -26 -24 -25 -32 -45 -35 -80
-11 -21 14 -23 14 -12 1 11 -13 7 -17 -25 -26 -21 -6 -81 -26 -133 -45 -52
-19 -106 -38 -120 -42 -24 -7 -25 -7 -5 9 19 16 19 16 -8 4 -27 -11 -27 -13
-11 -25 27 -20 78 -16 136 11 29 14 96 34 148 46 109 24 202 66 244 109 l29
31 31 -19 c29 -18 77 -26 137 -22 14 0 43 14 63 30 34 27 43 29 112 29 56 -1
79 3 91 15 14 14 13 17 -16 32 -67 34 -77 115 -19 158 33 25 84 17 127 -18 16
-14 31 -25 33 -25 2 0 2 15 0 34 -5 42 23 66 112 96 35 11 80 29 102 40 21 11
51 20 66 20 35 0 35 7 3 32 -14 11 -25 30 -25 44 0 21 -4 24 -24 18 -19 -4
-32 1 -50 20 -15 14 -26 20 -26 12z"/>
<path d="M3902 1645 c0 -16 2 -22 5 -12 2 9 2 23 0 30 -3 6 -5 -1 -5 -18z"/>
<path d="M5074 1632 c6 -11 -6 -16 -26 -13 -5 0 -8 -3 -8 -9 0 -13 -56 -41
-65 -32 -5 4 -5 2 -2 -4 8 -14 -20 -27 -35 -17 -6 3 -8 1 -5 -4 4 -6 -13 -18
-38 -28 -25 -9 -42 -21 -39 -27 4 -6 -2 -8 -17 -3 -19 6 -22 5 -12 -5 10 -11
31 -8 107 15 52 15 93 31 91 36 -3 4 3 5 13 2 10 -2 31 1 47 8 17 7 35 11 40
10 6 -2 6 1 2 6 -5 4 -14 8 -19 8 -6 0 -13 6 -16 14 -3 9 0 11 8 6 9 -5 11 -4
6 4 -4 6 -12 8 -18 5 -7 -5 -9 -1 -5 9 3 9 1 19 -5 23 -7 4 -8 3 -4 -4z"/>
<path d="M2819 1603 c-13 -16 -12 -17 4 -4 16 13 21 21 13 21 -2 0 -10 -8 -17
-17z"/>
<path d="M2863 1599 c-35 -22 -46 -37 -15 -20 22 13 58 40 52 41 -3 0 -20 -10
-37 -21z"/>
<path d="M3912 1590 c0 -14 2 -19 5 -12 2 6 2 18 0 25 -3 6 -5 1 -5 -13z"/>
<path d="M2799 1553 c-13 -16 -12 -17 4 -4 9 7 17 15 17 17 0 8 -8 3 -21 -13z"/>
<path d="M3921 1534 c0 -11 3 -14 6 -6 3 7 2 16 -1 19 -3 4 -6 -2 -5 -13z"/>
<path d="M2611 1480 c-120 -49 -168 -84 -206 -148 -23 -39 -34 -50 -48 -46
-10 3 -26 -1 -35 -8 -9 -8 -39 -27 -67 -43 -55 -31 -104 -69 -121 -94 -10 -14
-4 -16 61 -15 l74 1 93 95 c52 51 150 136 219 187 68 52 126 98 127 102 4 11
13 14 -97 -31z"/>
<path d="M4070 1507 c0 -2 15 -16 33 -33 l32 -29 -29 33 c-28 30 -36 37 -36
29z"/>
<path d="M4784 1481 c-14 -13 -133 -33 -157 -26 -20 5 -20 5 -4 -5 14 -9 36
-9 90 0 91 16 116 24 95 33 -9 3 -19 2 -24 -2z"/>
<path d="M3930 1454 c0 -9 12 -14 33 -14 17 0 47 -4 66 -10 19 -5 31 -6 27 -2
-4 4 -34 14 -67 23 -48 13 -59 14 -59 3z"/>
<path d="M1941 1404 c-57 -28 -74 -43 -86 -69 -13 -33 -52 -54 -73 -41 -5 3
-24 -10 -42 -29 -19 -19 -39 -35 -46 -35 -7 0 -14 -5 -16 -11 -2 -7 -17 -13
-33 -15 -40 -3 -144 -48 -173 -73 -13 -12 -36 -21 -50 -21 -88 0 -263 -148
-297 -249 -12 -36 -15 -68 -11 -97 3 -24 2 -44 -3 -44 -13 0 -31 -49 -31 -87
0 -28 8 -44 39 -74 45 -45 74 -49 174 -23 34 9 77 14 97 11 19 -2 59 0 89 5
46 8 60 6 103 -12 39 -16 64 -21 107 -17 181 14 303 30 353 46 54 17 58 17 90
-1 58 -31 102 -40 308 -64 34 -4 63 1 115 20 39 15 102 29 140 33 70 6 125 25
125 43 0 13 -3 14 -185 14 -88 1 -187 5 -221 10 -49 7 -76 4 -144 -13 -104
-26 -131 -26 -163 -1 -15 12 -40 20 -65 20 -25 0 -45 6 -55 18 -20 22 -22 63
-4 81 6 7 8 11 2 10 -24 -7 -84 13 -88 29 -4 13 -5 11 -6 -5 0 -12 8 -28 18
-35 16 -11 18 -20 12 -48 l-7 -35 -203 -2 -203 -2 63 31 c58 27 71 30 135 25
58 -4 71 -3 71 10 0 12 -9 13 -45 8 -51 -8 -82 12 -82 53 0 30 -39 68 -80 77
-36 8 -54 36 -48 76 5 34 4 35 -29 9 -29 -22 -92 -27 -111 -8 -21 21 -13 55
19 82 17 14 38 26 48 26 10 0 23 11 29 24 11 24 72 46 130 46 33 0 72 -36 72
-66 0 -12 7 -4 20 21 11 22 38 60 60 84 29 32 35 42 20 38 -11 -3 -20 -2 -20
3 0 9 207 149 260 175 50 25 87 55 68 55 -9 0 -21 7 -28 15 -19 22 -40 19
-119 -21z m-453 -660 c59 -41 -15 -152 -87 -129 -60 19 -15 140 54 144 6 1 21
-6 33 -15z"/>
<path d="M4463 1433 c9 -2 25 -2 35 0 9 3 1 5 -18 5 -19 0 -27 -2 -17 -5z"/>
<path d="M4555 1430 c-14 -7 -8 -8 20 -3 22 3 42 7 44 9 9 8 -45 2 -64 -6z"/>
<path d="M6098 1433 c7 -3 16 -2 19 1 4 3 -2 6 -13 5 -11 0 -14 -3 -6 -6z"/>
<path d="M3941 1414 c0 -11 3 -14 6 -6 3 7 2 16 -1 19 -3 4 -6 -2 -5 -13z"/>
<path d="M4268 1423 c23 -2 59 -2 80 0 20 2 1 4 -43 4 -44 0 -61 -2 -37 -4z"/>
<path d="M3980 1341 c-17 -5 -5 -7 36 -7 34 1 57 4 50 8 -14 9 -52 9 -86 -1z"/>
<path d="M4103 1323 c9 -2 23 -2 30 0 6 3 -1 5 -18 5 -16 0 -22 -2 -12 -5z"/>
<path d="M1879 1111 c-30 -32 -66 -81 -80 -108 -24 -44 -29 -48 -60 -45 -19 2
-41 11 -50 21 -14 18 -16 18 -26 2 -14 -22 0 -49 45 -86 20 -16 32 -36 32 -51
0 -20 5 -24 33 -24 22 0 28 3 18 9 -9 6 -10 11 -2 15 6 4 11 4 11 -1 1 -4 8 5
16 20 10 18 13 39 9 57 -7 34 7 66 34 75 10 3 37 36 58 74 33 57 38 71 27 85
-10 15 -18 10 -65 -43z"/>
<path d="M5233 1049 c-33 -15 -47 -17 -68 -9 -20 8 -31 7 -41 -1 -8 -7 -51
-18 -96 -25 -72 -11 -83 -11 -106 4 -15 9 -23 12 -20 6 5 -7 -12 -15 -45 -23
-119 -29 -185 -42 -232 -48 -27 -3 -51 -7 -53 -8 -1 -1 32 -8 74 -14 76 -11
77 -11 100 14 20 21 32 25 83 25 33 0 84 6 114 14 35 9 68 11 95 6 24 -4 45
-3 48 1 3 5 20 9 37 9 30 0 157 52 157 65 0 6 4 7 -47 -16z"/>
<path d="M1097 975 c7 -36 -44 -85 -90 -85 -19 0 -40 7 -47 15 -7 8 -17 15
-22 15 -5 0 -42 -30 -82 -67 -41 -38 -91 -80 -113 -94 -46 -31 -73 -81 -73
-138 0 -35 4 -43 29 -55 16 -9 37 -27 48 -41 24 -33 92 -46 112 -21 19 22 57
20 74 -4 12 -17 19 -19 41 -10 14 5 32 21 38 35 10 23 9 29 -13 49 -31 30
-154 73 -140 49 22 -40 -38 -95 -79 -73 -42 22 -12 89 41 91 17 1 19 3 7 6
-28 7 -21 27 15 48 72 42 297 269 297 300 0 3 -11 5 -24 5 -19 0 -22 -4 -19
-25z"/>
<path d="M3152 723 c10 -18 10 -27 0 -43 -17 -27 -17 -27 32 -34 35 -6 57 -2
101 17 34 14 53 27 46 31 -6 4 -9 12 -5 17 5 9 -135 3 -145 -6 -2 -2 -12 6
-23 18 l-19 22 13 -22z"/>
<path d="M3036 708 c5 -8 -4 -9 -32 -5 -37 6 -38 5 -14 -7 14 -7 37 -16 52
-20 22 -5 25 -3 21 13 -3 11 -12 22 -20 25 -9 4 -11 2 -7 -6z"/>
<path d="M3373 696 c-15 -17 11 -26 72 -25 l40 0 -40 19 c-49 22 -57 23 -72 6z"/>
</g>
</svg>
